<?xml version="1.0" encoding="UTF-8" standalone="no"?><!DOCTYPE svg PUBLIC "-//W3C//DTD SVG 1.1//EN" "http://www.w3.org/Graphics/SVG/1.1/DTD/svg11.dtd"><svg width="100%" height="100%" viewBox="0 0 25 25" version="1.1" xmlns="http://www.w3.org/2000/svg" xmlns:xlink="http://www.w3.org/1999/xlink" xml:space="preserve" xmlns:serif="http://www.serif.com/" style="fill-rule:evenodd;clip-rule:evenodd;stroke-linejoin:round;stroke-miterlimit:2;"><path d="M8.855,3.624l0,17.71c0,2 1.624,3.624 3.624,3.624c2,-0 3.624,-1.624 3.624,-3.624l-0,-17.71c-0,-2 -1.624,-3.624 -3.624,-3.624c-2,0 -3.624,1.624 -3.624,3.624Zm1,-0c0,-1.448 1.176,-2.624 2.624,-2.624c1.448,-0 2.624,1.176 2.624,2.624c-0,-0 -0,17.71 -0,17.71c-0,1.448 -1.176,2.624 -2.624,2.624c-1.448,-0 -2.624,-1.176 -2.624,-2.624l0,-17.71Z"/><path d="M3.624,16.103l17.71,-0c2,-0 3.624,-1.624 3.624,-3.624c-0,-2 -1.624,-3.624 -3.624,-3.624l-17.71,0c-2,0 -3.624,1.624 -3.624,3.624c0,2 1.624,3.624 3.624,3.624Zm-0,-1c-1.448,-0 -2.624,-1.176 -2.624,-2.624c-0,-1.448 1.176,-2.624 2.624,-2.624c-0,0 17.71,0 17.71,0c1.448,0 2.624,1.176 2.624,2.624c-0,1.448 -1.176,2.624 -2.624,2.624c-0,-0 -17.71,-0 -17.71,-0Z"/><path d="M3.655,8.78l12.523,12.523c1.414,1.414 3.71,1.414 5.125,-0c1.414,-1.415 1.414,-3.711 -0,-5.125c-0,-0 -12.523,-12.523 -12.523,-12.523c-1.414,-1.414 -3.711,-1.414 -5.125,-0c-1.414,1.414 -1.414,3.711 -0,5.125Zm0.707,-0.707c-1.024,-1.024 -1.024,-2.687 0,-3.711c1.024,-1.024 2.687,-1.024 3.711,0c-0,0 12.523,12.523 12.523,12.523c1.024,1.024 1.024,2.687 -0,3.711c-1.024,1.024 -2.687,1.024 -3.711,-0c-0,-0 -12.523,-12.523 -12.523,-12.523Z"/><path d="M16.178,3.655l-12.523,12.523c-1.414,1.414 -1.414,3.71 -0,5.125c1.414,1.414 3.711,1.414 5.125,-0c-0,-0 12.523,-12.523 12.523,-12.523c1.414,-1.414 1.414,-3.711 -0,-5.125c-1.415,-1.414 -3.711,-1.414 -5.125,-0Zm0.707,0.707c1.024,-1.024 2.687,-1.024 3.711,0c1.024,1.024 1.024,2.687 -0,3.711c-0,-0 -12.523,12.523 -12.523,12.523c-1.024,1.024 -2.687,1.024 -3.711,-0c-1.024,-1.024 -1.024,-2.687 0,-3.711c0,-0 12.523,-12.523 12.523,-12.523Z"/><circle cx="12.041" cy="12.17" r="4.562" style="fill:#fff;"/><path d="M12.041,7.108c-2.794,0 -5.062,2.269 -5.062,5.062c-0,2.794 2.268,5.062 5.062,5.062c2.793,0 5.062,-2.268 5.062,-5.062c-0,-2.793 -2.269,-5.062 -5.062,-5.062Zm-0,1c2.241,0 4.062,1.821 4.062,4.062c-0,2.242 -1.821,4.062 -4.062,4.062c-2.242,0 -4.062,-1.82 -4.062,-4.062c-0,-2.241 1.82,-4.062 4.062,-4.062Z"/></svg>